HIERARCHY
ROOT Hips
{
	OFFSET 0.000000 0.000000 0.000000
	CHANNELS 6 Xposition Yposition Zposition Xrotation Yrotation Zrotation
	JOINT LeftUpLeg_virtual
	{
		OFFSET 0.000000 0.000000 0.000000
		CHANNELS 3 Xrotation Yrotation Zrotation
		JOINT LeftUpLeg
		{
			OFFSET 13.026900 -6.336304 -1.092800
			CHANNELS 3 Xrotation Yrotation Zrotation
			JOINT LeftLeg
			{
				OFFSET 0.524474 -46.096886 9.782700
				CHANNELS 3 Xrotation Yrotation Zrotation
				JOINT LeftFoot
				{
					OFFSET -0.524474 -53.427422 -12.948200
					CHANNELS 3 Xrotation Yrotation Zrotation
					JOINT LeftToeBase
					{
						OFFSET 0.192200 -14.009700 16.364100
						CHANNELS 3 Xrotation Yrotation Zrotation
						JOINT LeftToe_End
						{
							OFFSET -1.784700 -0.561700 9.474800
							CHANNELS 3 Xrotation Yrotation Zrotation
							End Site
							{
								OFFSET 0 0 0
							}
						}
					}
				}
			}
		}
	}
	JOINT RightUpLeg_virtual
	{
		OFFSET 0.000000 0.000000 0.000000
		CHANNELS 3 Xrotation Yrotation Zrotation
		JOINT RightUpLeg
		{
			OFFSET -12.883000 -6.336304 -1.092800
			CHANNELS 3 Xrotation Yrotation Zrotation
			JOINT RightLeg
			{
				OFFSET -0.524587 -46.096825 9.782800
				CHANNELS 3 Xrotation Yrotation Zrotation
				JOINT RightFoot
				{
					OFFSET 0.524587 -53.427383 -12.948300
					CHANNELS 3 Xrotation Yrotation Zrotation
					JOINT RightToeBase
					{
						OFFSET -0.192200 -14.009700 16.364100
						CHANNELS 3 Xrotation Yrotation Zrotation
						JOINT RightToe_End
						{
							OFFSET 1.784700 -0.561700 9.474800
							CHANNELS 3 Xrotation Yrotation Zrotation
							End Site
							{
								OFFSET 0 0 0
							}
						}
					}
				}
			}
		}
	}
	JOINT Spine_virtual
	{
		OFFSET 0.000000 0.000000 0.000000
		CHANNELS 3 Xrotation Yrotation Zrotation
		JOINT Spine
		{
			OFFSET 0.072000 7.257294 -0.789700
			CHANNELS 3 Xrotation Yrotation Zrotation
			JOINT Spine1
			{
				OFFSET 0.000000 12.508769 -0.658067
				CHANNELS 3 Xrotation Yrotation Zrotation
				JOINT Spine1_split
				{
					OFFSET 0.000000 12.508769 -0.658067
					CHANNELS 3 Xrotation Yrotation Zrotation
					JOINT Spine2
					{
						OFFSET 0.000000 12.508769 -0.658067
						CHANNELS 3 Xrotation Yrotation Zrotation
						JOINT Neck_virtual
						{
							OFFSET 0.000000 0.000000 0.000000
							CHANNELS 3 Xrotation Yrotation Zrotation
							JOINT Neck
							{
								OFFSET 0.000000 14.033295 7.520400
								CHANNELS 3 Xrotation Yrotation Zrotation
								JOINT Head
								{
									OFFSET 0.000000 8.198502 5.703100
									CHANNELS 3 Xrotation Yrotation Zrotation
									JOINT HeadTop_End
									{
										OFFSET 0.000000 17.760803 13.332701
										CHANNELS 3 Xrotation Yrotation Zrotation
										End Site
										{
											OFFSET 0 0 0
										}
									}
								}
							}
						}
						JOINT LeftShoulder_virtual
						{
							OFFSET 0.000000 0.000000 0.000000
							CHANNELS 3 Xrotation Yrotation Zrotation
							JOINT LeftShoulder
							{
								OFFSET 6.292450 5.785301 -0.669000
								CHANNELS 3 Xrotation Yrotation Zrotation
								JOINT LeftShoulder_split
								{
									OFFSET 6.292450 5.785301 -0.669000
									CHANNELS 3 Xrotation Yrotation Zrotation
									JOINT LeftArm
									{
										OFFSET 13.907140 -6.093903 1.965100
										CHANNELS 3 Xrotation Yrotation Zrotation
										JOINT LeftForeArm
										{
											OFFSET 34.140198 0.000000 0.000000
											CHANNELS 3 Xrotation Yrotation Zrotation
											JOINT LeftHand
											{
												OFFSET 40.960209 0.000000 0.000000
												CHANNELS 3 Xrotation Yrotation Zrotation
												End Site
												{
													OFFSET 0 0 0
												}
											}
										}
									}
								}
							}
						}
						JOINT RightShoulder_virtual
						{
							OFFSET 0.000000 0.000000 0.000000
							CHANNELS 3 Xrotation Yrotation Zrotation
							JOINT RightShoulder
							{
								OFFSET -6.292450 5.785301 -0.669000
								CHANNELS 3 Xrotation Yrotation Zrotation
								JOINT RightShoulder_split
								{
									OFFSET -6.292450 5.785301 -0.669000
									CHANNELS 3 Xrotation Yrotation Zrotation
									JOINT RightArm
									{
										OFFSET -13.907140 -6.093903 1.965100
										CHANNELS 3 Xrotation Yrotation Zrotation
										JOINT RightForeArm
										{
											OFFSET -34.140198 0.000000 0.000000
											CHANNELS 3 Xrotation Yrotation Zrotation
											JOINT RightHand
											{
												OFFSET -40.960209 0.000000 0.000000
												CHANNELS 3 Xrotation Yrotation Zrotation
												End Site
												{
													OFFSET 0 0 0
												}
											}
										}
									}
								}
							}
						}
					}
				}
			}
		}
	}
}
MOTION
Frames: 5
Frame Time: 0.03333333
-26.954929 94.524872 -9.694654 0.000000 0.000000 0.000000 34.130629 5.837296 -3.987851 -67.692448 -16.974642 20.123641 39.829060 4.126386 -1.065088 6.830902 9.234797 -28.304019 -3.258099 0.156191 0.164073 0.000000 0.000000 0.000000 34.542490 5.187514 -4.182026 -60.849786 -2.839535 -24.580459 47.360644 0.598509 -0.166184 -15.612901 -5.453941 20.053446 -1.050630 0.207204 0.309812 0.000000 0.000000 0.000000 35.135743 3.947594 -4.941534 10.261765 2.259023 0.183463 9.918660 2.006962 1.019667 0.890208 0.004932 0.371560 0.000000 0.000000 0.000000 8.528815 2.178605 0.870374 -1.275465 -1.581985 -1.540035 -30.491187 -11.396798 4.300635 0.000000 0.000000 0.000000 8.676211 2.173609 0.565613 0.067467 -21.772609 -10.047987 1.751354 0.781298 -2.251515 15.657751 -11.723030 -49.203358 -2.768809 -71.785240 -2.751666 0.000000 0.000000 0.000000 8.684807 2.382336 1.142286 3.554837 25.739090 6.707400 0.707973 2.784900 -0.174026 -5.340964 41.460850 18.922378 -0.853727 20.692985 1.750410 0.000000 0.000000 0.000000 
-25.975567 93.179756 -9.523741 0.000000 0.000000 0.000000 36.742422 6.007824 -3.529067 -72.583929 -15.814634 19.572756 42.223464 3.185999 -1.111890 5.899205 7.815005 -28.206946 -3.426346 0.050395 0.369479 0.000000 0.000000 0.000000 37.225607 4.945441 -3.536892 -63.888019 -1.816024 -25.956763 48.367708 1.443185 -0.200916 -16.516137 -5.567866 20.442673 -1.554184 0.235971 0.279835 0.000000 0.000000 0.000000 37.988105 3.985958 -4.341467 10.488569 2.541159 0.146896 10.275912 2.167908 1.043439 0.844453 -0.004889 0.407959 0.000000 0.000000 0.000000 8.829456 2.346998 0.854423 -1.548265 -1.775716 -1.698381 -32.441001 -12.158193 3.481220 0.000000 0.000000 0.000000 9.038994 2.335495 0.548424 0.081437 -22.418165 -9.690030 1.890454 0.707761 -2.391397 15.392303 -11.411443 -49.020162 -3.639600 -74.129027 -3.663747 0.000000 0.000000 0.000000 8.969688 2.562380 1.196003 3.487050 26.211093 6.927310 0.948611 2.771687 -0.290162 -7.817091 41.476833 15.825021 -1.162446 20.905869 1.875623 0.000000 0.000000 0.000000 
-24.987270 91.758980 -9.212198 0.000000 0.000000 0.000000 39.265911 6.431479 -2.905978 -77.428595 -14.569733 19.050364 44.601217 2.242164 -1.201364 4.944434 6.305162 -27.653821 -3.382938 -0.041132 0.418539 0.000000 0.000000 0.000000 39.767912 5.026437 -2.768842 -66.772360 -0.630886 -27.684466 49.890697 2.341407 -0.117874 -17.461908 -5.703004 20.901893 -2.053250 0.234687 0.288041 0.000000 0.000000 0.000000 40.745575 4.268823 -3.584920 10.705934 2.766037 0.088020 10.605856 2.322118 1.047496 0.838113 -0.020737 0.404340 0.000000 0.000000 0.000000 9.127145 2.510020 0.826404 -1.769067 -2.012252 -1.843410 -34.155085 -12.991951 2.617309 0.000000 0.000000 0.000000 9.398374 2.493775 0.538636 0.140089 -23.120950 -9.199123 2.155033 0.535496 -2.581329 15.847236 -12.059589 -48.887420 -4.568495 -76.265155 -4.651124 0.000000 0.000000 0.000000 9.258563 2.728478 1.241118 3.377383 26.472329 7.294540 1.170972 2.735224 -0.352143 -11.210857 41.296065 13.350943 -1.462918 21.200716 1.879659 0.000000 0.000000 0.000000 
-24.005978 90.127304 -8.759401 0.000000 0.000000 0.000000 41.639364 7.124705 -2.118561 -82.028161 -13.359849 18.547479 46.913465 1.331780 -1.336930 3.939163 4.932275 -26.694331 -3.232803 -0.110001 0.333940 0.000000 0.000000 0.000000 42.094323 5.472716 -1.878774 -69.378985 0.789596 -29.731042 51.934559 3.204222 0.059968 -18.761563 -5.983878 21.194874 -2.178772 0.216568 0.344485 0.000000 0.000000 0.000000 43.307491 4.830379 -2.679082 10.914803 2.948179 -0.021410 10.958162 2.493848 1.046515 0.803452 -0.043432 0.400182 0.000000 0.000000 0.000000 9.491314 2.687409 0.804854 -2.004741 -2.289949 -2.009270 -35.767033 -13.874045 1.670810 0.000000 0.000000 0.000000 9.802317 2.670170 0.552523 0.244205 -23.767877 -8.617698 2.463965 0.385763 -2.741118 16.609972 -13.418900 -48.795169 -5.451171 -77.876144 -5.576777 0.000000 0.000000 0.000000 9.602105 2.896801 1.275935 3.280401 26.599456 7.675567 1.381459 2.648387 -0.329280 -14.821191 40.987760 11.101569 -1.716668 21.857254 1.795413 0.000000 0.000000 0.000000 
-23.126930 88.181549 -8.216566 0.000000 0.000000 0.000000 43.760551 8.107182 -1.205032 -86.218591 -12.295281 18.026150 49.207773 0.424889 -1.481539 2.686010 3.838398 -25.482775 -3.062357 -0.167704 0.197337 0.000000 0.000000 0.000000 44.189125 6.307924 -0.893253 -71.568655 2.498200 -31.971692 54.547530 3.965249 0.298398 -20.566734 -6.481011 21.186535 -1.897713 0.199674 0.441252 0.000000 0.000000 0.000000 45.601908 5.655973 -1.676635 11.136986 3.114747 -0.198718 11.384288 2.713077 1.055168 0.713735 -0.090421 0.436580 0.000000 0.000000 0.000000 9.981025 2.905847 0.801423 -2.370255 -2.608350 -2.232524 -37.442913 -14.747777 0.612910 0.000000 0.000000 0.000000 10.301410 2.885743 0.599539 0.397243 -24.241943 -7.989925 2.691029 0.308975 -2.803391 17.267248 -15.111532 -48.732706 -6.320631 -78.817712 -6.448265 0.000000 0.000000 0.000000 10.059773 3.092507 1.310656 3.234168 26.711671 7.935859 1.539911 2.569505 -0.174980 -17.912842 40.693232 8.534718 -1.861088 22.795855 1.687447 0.000000 0.000000 0.000000 
